<?xml version="1.0" encoding="UTF-8"?>
<svg id="Lager_2" data-name="Lager 2" xmlns="http://www.w3.org/2000/svg" viewBox="0 0 159.89 57.65">
  <defs>
    <style>
      .cls-1 {
        fill: #12120c;
      }

      .cls-1, .cls-2, .cls-3 {
        stroke-width: 0px;
      }

      .cls-2 {
        fill: #881721;
      }

      .cls-3 {
        fill: #fffffd;
      }
    </style>
  </defs>
  <g id="Lager_1-2" data-name="Lager 1">
    <g>
      <g>
        <path class="cls-3" d="M.62,57.15L9.95,13.08h11.68c7.25,0,12.16,1.51,14.57,4.49,1.59,1.96,2.05,4.56,1.38,7.74-.73,3.44-3.52,5.79-5.95,6.58l-.73.24.74.24c4.68,1.5,6.74,5.83,5.52,11.59-1.93,9.25-8.92,13.19-23.38,13.19H.62ZM14.98,48.14h2.11c4.62,0,7.25-1.71,8.02-5.24.3-1.29.14-2.46-.46-3.4-.63-.98-1.71-1.64-3.19-1.94-.58-.14-1.32-.21-2.21-.21h-2l-2.26,10.79ZM19.01,29.14h.31c4.44,0,6.67-1.13,7.23-3.66.23-1.05.11-1.85-.37-2.44-.77-.95-2.49-1.4-5.42-1.4h-.2l-1.54,7.49Z"/>
        <path class="cls-1" d="M21.63,13.33c7.07,0,12.05,1.52,14.38,4.4,1.54,1.9,1.99,4.43,1.33,7.53-.71,3.35-3.42,5.62-5.79,6.4l-1.47.48,1.47.47c4.54,1.45,6.54,5.68,5.35,11.3-1.9,9.11-8.81,12.99-23.13,12.99H.93L10.15,13.33h11.47M18.7,29.39h.61c4.58,0,6.89-1.19,7.48-3.85.25-1.13.11-1.99-.42-2.65-.83-1.03-2.56-1.49-5.62-1.49h-.41l-.08.4-1.44,6.99-.12.6M14.67,48.39h2.42c4.76,0,7.47-1.78,8.27-5.43.31-1.36.14-2.6-.49-3.59-.67-1.04-1.8-1.73-3.33-2.05-.61-.15-1.37-.22-2.28-.22h-2.21l-.08.4-2.16,10.29-.13.6M21.63,12.83h-11.88L.31,57.4h13.47c12.75,0,21.46-3.02,23.62-13.39,1.37-6.48-1.44-10.52-5.69-11.88,2.66-.87,5.4-3.39,6.12-6.77,1.87-8.86-5.04-12.53-16.2-12.53h0ZM19.32,28.89l1.44-6.99c4.9,0,6.05,1.23,5.55,3.53-.43,1.94-1.95,3.46-6.99,3.46h0ZM15.29,47.89l2.16-10.29h1.8c.87,0,1.59.07,2.16.21,3.17.65,3.96,2.88,3.46,5.04-.65,2.96-2.74,5.04-7.78,5.04h-1.8Z"/>
      </g>
      <g>
        <polygon class="cls-3" points="38.64 57.15 47.97 13.01 60.43 13.01 53.07 47.79 114.04 47.79 106.16 57.15 38.64 57.15"/>
        <path class="cls-1" d="M60.12,13.26l-7.22,34.18-.13.6h60.73l-7.46,8.86H38.95l9.22-43.64h11.95M60.73,12.76h-12.97l-9.43,44.64h67.94l8.3-9.86h-61.19l7.35-34.78h0Z"/>
      </g>
      <g>
        <path class="cls-3" d="M61.05,45.56l6.67-29.99c1.53,2.29,4.12,3.68,6.9,3.68,1.88,0,3.67-.62,5.12-1.77l-6.24,28.08h-12.45Z"/>
        <path class="cls-1" d="M67.84,16.16c1.6,2.08,4.1,3.33,6.78,3.33,1.71,0,3.35-.5,4.73-1.42l-6.06,27.23h-11.94l6.48-29.14M67.61,14.91l-6.87,30.9h12.96l6.45-29.01c-1.48,1.41-3.45,2.2-5.53,2.2-2.9,0-5.6-1.59-7.01-4.09h0Z"/>
      </g>
      <g>
        <polygon class="cls-3" points="88.77 45.56 94.03 22.3 81.36 22.3 83.51 13.01 122.61 13.01 118.24 22.3 106.34 22.3 101.07 45.56 88.77 45.56"/>
        <path class="cls-1" d="M122.22,13.26l-4.14,8.79h-11.94l-.09.39-5.18,22.87h-11.78l5.12-22.65.14-.61h-12.67l2.03-8.79h38.51M123.01,12.76h-39.7l-2.26,9.79h12.67l-5.26,23.26h12.81l5.27-23.26h11.86l4.61-9.79h0Z"/>
      </g>
      <g>
        <polygon class="cls-3" points="109.01 57.15 138.32 22.3 120.96 22.3 125.2 13.01 159.35 13.01 130.18 47.79 153.74 47.79 149.5 57.15 109.01 57.15"/>
        <path class="cls-1" d="M158.82,13.26l-28.48,33.96-.69.82h23.71l-4.02,8.86h-39.79l28.62-34.03.69-.82h-17.51l4.01-8.79h33.46M159.89,12.76h-34.85l-4.47,9.79h17.21l-29.31,34.85h41.19l4.47-9.86h-23.41l29.17-34.78h0Z"/>
      </g>
      <path class="cls-2" d="M45.64,2.79c8.89-.46,17.67,3.8,20.95,8.9.12.19.23.37.33.56.23.4.42.81.57,1.22.01.02.02.04.03.06h0c.03.1.06.18.1.27.04.12.1.23.16.35,1.2,2.57,3.81,4.35,6.84,4.35,2.3,0,4.36-1.02,5.74-2.64,1.15-1.32,1.84-3.05,1.84-4.93,0-2.18-.92-4.14-2.4-5.52-.02-.02-.03-.03-.05-.05-.74-.79-1.97-1.48-3.52-2.08-.35-.14-.72-.27-1.1-.4C67.86.46,55.31-.31,50.81.11c9.51,1.15,12.28,3.21,12.28,3.21-9.83-2.38-17.45-.53-17.45-.53ZM74.35,17.99h-.25c-.26-.03-.51-.06-.76-.11-1.39-.26-2.6-.88-3.62-1.86-.01-.01-.01-.02-.03-.05,2.33-.18,4.57-.64,6.66-1.79.05.26.1.51.15.75.08.43-.05.81-.27,1.16-.36.57-.85,1.02-1.35,1.45-.17.15-.36.3-.53.45ZM79.25,16.27c-.9.78-1.93,1.3-3.1,1.56-.2.04-.4.07-.6.1,0,0-.02,0-.03,0,.1-.09.19-.17.28-.26.38-.36.73-.74,1.02-1.18.38-.58.49-1.22.33-1.89-.05-.23-.12-.46-.18-.69,0-.05,0-.11.04-.14.37-.3.74-.6,1.12-.91.08.14.17.29.27.44.55.87.8,1.84.92,2.85.01.04-.03.1-.07.13ZM80.64,14.62c-.2.32-.43.63-.69.93-.13-1.03-.53-1.93-1.04-2.79-.1-.15-.19-.3-.29-.45.27-.32.52-.62.79-.95.45.6,1,.98,1.71.98.14,0,.28-.01.43-.04-.17.85-.47,1.62-.91,2.32ZM81.37,8.85c.05.13.09.27.12.41.06.36.11.72.17,1.08,0,.04.02.08.03.12v.94c-.02.07-.03.13-.05.21-.15,0-.3.03-.46.03s-.32-.02-.47-.06c-.13-.04-.24-.14-.35-.23-.19-.17-.37-.35-.53-.49.49-.83.95-1.6,1.42-2.38.04.11.08.24.12.37ZM78.04,4.75c.53.3,1.01.65,1.43,1.05.52.48.96,1.05,1.32,1.69.02.04.04.11.02.16-.39.9-.87,1.74-1.45,2.58-.17-.29-.34-.55-.49-.83-.36-.62-.53-1.3-.66-2-.01-.05-.02-.11-.03-.16-.16-.91-.33-1.81-.66-2.68,0-.02-.01-.04-.01-.08.19.1.36.18.53.27ZM71.57,4.56c.8-.39,1.66-.61,2.56-.67.03-.01.07-.02.11-.03h.8c.26.04.53.07.8.12.21.03.43.08.64.14.05.01.1.06.12.11.3.56.48,1.15.61,1.76.14.63.25,1.27.39,1.89.03.16.06.31.1.47.2.84.61,1.58,1.11,2.29q.13.18,0,.35c-.19.23-.38.46-.58.71-.05-.06-.08-.1-.11-.14-.57-.81-1.18-1.59-1.84-2.32-.42-.48-.87-.95-1.34-1.39-.94-.89-1.95-1.7-3.13-2.25-.36-.17-.75-.29-1.13-.44-.02,0-.04-.01-.08-.06.32-.18.64-.37.97-.54ZM68.41,7.57c.36-.66.82-1.25,1.36-1.77.05-.05.1-.07.17-.07h.04c.76.11,1.46.42,2.11.81,1.42.85,2.6,1.97,3.69,3.2.02.02.03.03.05.05.66.74,1.27,1.53,1.84,2.35.01.02.03.05.07.1-.21.18-.41.36-.61.52-.15.14-.3.27-.43.38-.18-.14-.32-.26-.46-.38-.02-.02-.04-.03-.06-.05-.54-.44-1.19-.67-1.85-.84-.22-.06-.44-.11-.66-.16-1.19-.3-2.38-.59-3.57-.89-.8-.21-1.59-.46-2.35-.8-.1-.05-.12-.1-.11-.2.13-.79.39-1.54.77-2.25ZM67.56,10.71c.48.17.95.38,1.45.52,1.09.3,2.18.57,3.28.86.23.06.47.12.7.18.61.16,1.21.31,1.81.48.01,0,.02.01.03.01.38.12.73.31,1.01.59.06.06.12.12.19.21-.3.15-.58.3-.87.43-1.09.5-2.23.81-3.39,1.02-.86.16-1.72.25-2.59.28-.09,0-.14-.02-.19-.09-.17-.23-.33-.47-.47-.71-.22-.38-.41-.78-.55-1.2-.14-.38-.24-.77-.31-1.17-.05-.25-.07-.5-.1-.75v-.66Z"/>
    </g>
  </g>
</svg>