<?xml version="1.0" encoding="UTF-8"?>
<svg id="Lager_2" data-name="Lager 2" xmlns="http://www.w3.org/2000/svg" viewBox="0 0 159.58 57.4">
  <defs>
    <style>
      .cls-1 {
        fill: #12120c;
      }

      .cls-1, .cls-2 {
        stroke-width: 0px;
      }

      .cls-2 {
        fill: #881721;
      }
    </style>
  </defs>
  <g id="Lager_1-2" data-name="Lager 1">
    <g>
      <path class="cls-1" d="M21.32,12.83h-11.88L0,57.4h13.47c12.75,0,21.46-3.02,23.62-13.39,1.37-6.48-1.44-10.52-5.69-11.88,2.66-.87,5.4-3.39,6.12-6.77,1.87-8.86-5.04-12.53-16.2-12.53ZM24.56,42.85c-.65,2.96-2.74,5.04-7.78,5.04h-1.8l2.16-10.29h1.8c.87,0,1.59.07,2.16.21,3.17.65,3.96,2.88,3.46,5.04ZM26,25.43c-.43,1.94-1.95,3.46-6.99,3.46l1.44-6.99c4.9,0,6.05,1.23,5.55,3.53Z"/>
      <polygon class="cls-1" points="53.08 47.54 60.43 12.76 47.46 12.76 38.03 57.4 105.97 57.4 114.27 47.54 53.08 47.54"/>
      <path class="cls-1" d="M67.3,14.91l-6.87,30.9h12.96l6.45-29.01c-1.48,1.41-3.45,2.2-5.53,2.2-2.9,0-5.6-1.59-7.01-4.09Z"/>
      <polygon class="cls-1" points="93.41 22.55 88.15 45.81 100.96 45.81 106.23 22.55 118.09 22.55 122.7 12.76 83 12.76 80.74 22.55 93.41 22.55"/>
      <polygon class="cls-1" points="159.58 12.76 124.73 12.76 120.26 22.55 137.47 22.55 108.16 57.4 149.35 57.4 153.82 47.54 130.41 47.54 159.58 12.76"/>
      <path class="cls-2" d="M45.33,2.79c8.89-.46,17.67,3.8,20.95,8.9.12.19.23.37.33.56.23.4.42.81.57,1.22.01.02.02.04.03.06h0c.03.1.06.18.1.27.04.12.1.23.16.35,1.2,2.57,3.81,4.35,6.84,4.35,2.3,0,4.36-1.02,5.74-2.64,1.15-1.32,1.84-3.05,1.84-4.93,0-2.18-.92-4.14-2.4-5.52-.02-.02-.03-.03-.05-.05-.74-.79-1.97-1.48-3.52-2.08-.35-.14-.72-.27-1.1-.4C67.55.46,55-.31,50.5.11c9.51,1.15,12.28,3.21,12.28,3.21-9.83-2.38-17.45-.53-17.45-.53ZM74.04,17.99h-.25c-.26-.03-.51-.06-.76-.11-1.39-.26-2.6-.88-3.62-1.86-.01-.01-.01-.02-.03-.05,2.33-.18,4.57-.64,6.66-1.79.05.26.1.51.15.75.08.43-.05.81-.27,1.16-.36.57-.85,1.02-1.35,1.45-.17.15-.36.3-.53.45ZM78.94,16.27c-.9.78-1.93,1.3-3.1,1.56-.2.04-.4.07-.6.1,0,0-.02,0-.03,0,.1-.09.19-.17.28-.26.38-.36.73-.74,1.02-1.18.38-.58.49-1.22.33-1.89-.05-.23-.12-.46-.18-.69,0-.05,0-.11.04-.14.37-.3.74-.6,1.12-.91.08.14.17.29.27.44.55.87.8,1.84.92,2.85.01.04-.03.1-.07.13ZM80.33,14.62c-.2.32-.43.63-.69.93-.13-1.03-.53-1.93-1.04-2.79-.1-.15-.19-.3-.29-.45.27-.32.52-.62.79-.95.45.6,1,.98,1.71.98.14,0,.28-.01.43-.04-.17.85-.47,1.62-.91,2.32ZM81.06,8.85c.05.13.09.27.12.41.06.36.11.72.17,1.08,0,.04.02.08.03.12v.94c-.02.07-.03.13-.05.21-.15,0-.3.03-.46.03s-.32-.02-.47-.06c-.13-.04-.24-.14-.35-.23-.19-.17-.37-.35-.53-.49.49-.83.95-1.6,1.42-2.38.04.11.08.24.12.37ZM77.73,4.75c.53.3,1.01.65,1.43,1.05.52.48.96,1.05,1.32,1.69.02.04.04.11.02.16-.39.9-.87,1.74-1.45,2.58-.17-.29-.34-.55-.49-.83-.36-.62-.53-1.3-.66-2-.01-.05-.02-.11-.03-.16-.16-.91-.33-1.81-.66-2.68,0-.02-.01-.04-.01-.08.19.1.36.18.53.27ZM71.26,4.56c.8-.39,1.66-.61,2.56-.67.03-.01.07-.02.11-.03h.8c.26.04.53.07.8.12.21.03.43.08.64.14.05.01.1.06.12.11.3.56.48,1.15.61,1.76.14.63.25,1.27.39,1.89.03.16.06.31.1.47.2.84.61,1.58,1.11,2.29q.13.18,0,.35c-.19.23-.38.46-.58.71-.05-.06-.08-.1-.11-.14-.57-.81-1.18-1.59-1.84-2.32-.42-.48-.87-.95-1.34-1.39-.94-.89-1.95-1.7-3.13-2.25-.36-.17-.75-.29-1.13-.44-.02,0-.04-.01-.08-.06.32-.18.64-.37.97-.54ZM68.1,7.57c.36-.66.82-1.25,1.36-1.77.05-.05.1-.07.17-.07h.04c.76.11,1.46.42,2.11.81,1.42.85,2.6,1.97,3.69,3.2.02.02.03.03.05.05.66.74,1.27,1.53,1.84,2.35.01.02.03.05.07.1-.21.18-.41.36-.61.52-.15.14-.3.27-.43.38-.18-.14-.32-.26-.46-.38-.02-.02-.04-.03-.06-.05-.54-.44-1.19-.67-1.85-.84-.22-.06-.44-.11-.66-.16-1.19-.3-2.38-.59-3.57-.89-.8-.21-1.59-.46-2.35-.8-.1-.05-.12-.1-.11-.2.13-.79.39-1.54.77-2.25ZM67.25,10.71c.48.17.95.38,1.45.52,1.09.3,2.18.57,3.28.86.23.06.47.12.7.18.61.16,1.21.31,1.81.48.01,0,.02.01.03.01.38.12.73.31,1.01.59.06.06.12.12.19.21-.3.15-.58.3-.87.43-1.09.5-2.23.81-3.39,1.02-.86.16-1.72.25-2.59.28-.09,0-.14-.02-.19-.09-.17-.23-.33-.47-.47-.71-.22-.38-.41-.78-.55-1.2-.14-.38-.24-.77-.31-1.17-.05-.25-.07-.5-.1-.75v-.66Z"/>
    </g>
  </g>
</svg>