<?xml version="1.0" encoding="UTF-8"?>
<svg id="Lager_2" data-name="Lager 2" xmlns="http://www.w3.org/2000/svg" viewBox="0 0 38.69 33.51">
  <defs>
    <style>
      .cls-1 {
        fill: #12120c;
      }

      .cls-1, .cls-2 {
        stroke-width: 0px;
      }

      .cls-2 {
        fill: #fffffd;
      }
    </style>
  </defs>
  <g id="Lager_1-2" data-name="Lager 1">
    <g>
      <polygon class="cls-2" points="29.02 0 9.67 0 0 16.75 9.67 33.51 29.02 33.51 38.69 16.75 29.02 0"/>
      <g>
        <path class="cls-1" d="M28.51,22.45c.62-.99,1.05-2.08,1.29-3.28-.21.04-.41.06-.61.06-1.01,0-1.78-.54-2.42-1.39-.38.47-.74.89-1.12,1.34.14.21.27.42.41.64.72,1.22,1.29,2.49,1.47,3.95.37-.42.69-.86.98-1.32Z"/>
        <path class="cls-1" d="M22.64,22.89c-.07-.34-.14-.69-.21-1.06-2.96,1.63-6.13,2.28-9.43,2.53.03.04.03.06.04.07,1.44,1.39,3.16,2.26,5.12,2.63.35.07.71.11,1.08.16h.35c.24-.21.51-.42.75-.64.71-.61,1.4-1.25,1.91-2.05.31-.5.5-1.03.38-1.64Z"/>
        <path class="cls-1" d="M22.15,26.99c1.66-.37,3.11-1.1,4.39-2.21.06-.04.11-.13.1-.18-.17-1.43-.52-2.8-1.3-4.03-.14-.21-.27-.42-.38-.62-.54.44-1.06.86-1.59,1.29-.04.04-.06.13-.06.2.08.33.18.65.25.98.23.95.07,1.85-.47,2.68-.41.62-.91,1.16-1.44,1.67-.13.13-.25.24-.4.37.01.01.03.01.04.01.28-.04.57-.08.85-.14Z"/>
        <path class="cls-1" d="M29.02,0H9.67l-1.77,3.06c4.64.66,9.18,1.57,12.8,2.77.54.18,1.06.37,1.56.57,2.19.85,3.94,1.83,4.98,2.94.03.03.04.04.07.07,2.1,1.95,3.4,4.73,3.4,7.81,0,2.66-.98,5.11-2.6,6.98-1.95,2.29-4.87,3.74-8.13,3.74-4.29,0-7.98-2.52-9.68-6.16-.08-.17-.17-.33-.23-.5-.06-.13-.1-.24-.14-.37h0s-.03-.07-.04-.1c-.21-.58-.48-1.16-.81-1.73-.14-.27-.3-.52-.47-.79-1.39-2.16-3.48-4.2-6.05-6l-2.57,4.45,9.67,16.75h19.35l9.67-16.75L29.02,0Z"/>
        <path class="cls-1" d="M22.79,7.74c-.03-.07-.1-.14-.17-.16-.3-.08-.61-.16-.91-.2-.38-.07-.76-.11-1.13-.17h-1.13c-.06.01-.11.03-.16.04-1.27.08-2.49.4-3.62.95-.47.24-.92.51-1.37.76.06.07.08.08.11.08.54.21,1.09.38,1.6.62,1.67.78,3.1,1.93,4.43,3.19.67.62,1.3,1.29,1.9,1.97.93,1.03,1.8,2.14,2.6,3.28.04.06.08.11.16.2.28-.35.55-.68.82-1.01q.18-.24,0-.5c-.71-1.01-1.29-2.05-1.57-3.24-.06-.23-.1-.44-.14-.67-.2-.88-.35-1.78-.55-2.68-.18-.86-.44-1.7-.86-2.49Z"/>
        <path class="cls-1" d="M9.99,17.85c.04.35.07.71.14,1.06.1.57.24,1.12.44,1.66.2.59.47,1.16.78,1.7.2.34.42.68.67,1.01.07.1.14.13.27.13,1.23-.04,2.45-.17,3.67-.4,1.64-.3,3.26-.74,4.8-1.44.41-.18.81-.4,1.23-.61-.1-.13-.18-.21-.27-.3-.4-.4-.89-.67-1.43-.84-.01,0-.03-.01-.04-.01-.85-.24-1.7-.45-2.56-.68-.33-.08-.67-.17-.99-.25-1.56-.41-3.1-.79-4.64-1.22-.71-.2-1.37-.5-2.05-.74v.93Z"/>
        <path class="cls-1" d="M29.99,17.89v-1.33c-.01-.06-.03-.11-.04-.17-.08-.51-.16-1.02-.24-1.53-.04-.2-.1-.4-.17-.58-.06-.18-.11-.37-.17-.52-.67,1.1-1.32,2.19-2.01,3.37.23.2.48.45.75.69.16.13.31.27.5.33.21.06.44.08.67.08s.44-.03.65-.04c.03-.11.04-.2.07-.3Z"/>
        <path class="cls-1" d="M13.36,9.87c-.1,0-.17.03-.24.1-.76.74-1.42,1.57-1.93,2.51-.54,1.01-.91,2.07-1.09,3.19-.01.14.01.21.16.28,1.08.48,2.19.84,3.33,1.13,1.68.42,3.37.84,5.05,1.26.31.07.62.14.93.23.93.24,1.85.57,2.62,1.19.03.03.06.04.08.07.2.17.4.34.65.54.18-.16.4-.34.61-.54.28-.23.57-.48.86-.74-.06-.07-.08-.11-.1-.14-.81-1.16-1.67-2.28-2.6-3.33-.03-.03-.04-.04-.07-.07-1.54-1.74-3.21-3.33-5.22-4.53-.92-.55-1.91-.99-2.99-1.15h-.06Z"/>
        <path class="cls-1" d="M26.85,9.96c-.59-.57-1.27-1.06-2.02-1.49-.24-.13-.48-.24-.75-.38,0,.06.01.08.01.11.47,1.23.71,2.51.93,3.79.01.07.03.16.04.23.18.99.42,1.95.93,2.83.21.4.45.76.69,1.17.82-1.19,1.5-2.38,2.05-3.65.03-.07,0-.17-.03-.23-.51-.91-1.13-1.71-1.87-2.39Z"/>
      </g>
    </g>
  </g>
</svg>